<?xml version="1.0" standalone="no"?>
<!DOCTYPE svg PUBLIC "-//W3C//DTD SVG 20010904//EN"
 "http://www.w3.org/TR/2001/REC-SVG-20010904/DTD/svg10.dtd">
<svg version="1.0" xmlns="http://www.w3.org/2000/svg"
 width="650.000000pt" height="650.000000pt" viewBox="0 0 650.000000 650.000000"
 preserveAspectRatio="xMidYMid meet">
<metadata>
Created by potrace 1.14, written by Peter Selinger 2001-2017
</metadata>
<g transform="translate(0.000000,650.000000) scale(0.100000,-0.100000)"
fill="#000000" stroke="none">
<path d="M2236 5052 c-172 -425 -323 -799 -551 -1362 -70 -173 -188 -466 -262
-650 -74 -184 -171 -422 -214 -529 -43 -107 -79 -196 -79 -198 0 -2 215 -2
477 -1 l476 3 157 389 c87 214 161 395 166 403 6 9 44 -74 121 -264 61 -153
234 -579 383 -948 149 -369 287 -712 307 -763 20 -51 38 -90 41 -87 3 3 110
264 238 581 l232 575 -68 167 c-37 92 -172 426 -300 742 -128 316 -260 645
-295 730 -63 155 -104 256 -465 1150 -106 261 -193 476 -194 477 -1 1 -78
-185 -170 -415z"/>
<path d="M4017 5253 c-42 -103 -141 -350 -221 -548 -80 -198 -146 -369 -146
-379 0 -10 46 -132 101 -270 56 -138 164 -404 239 -591 76 -187 195 -482 265
-655 70 -173 144 -355 164 -405 l36 -90 454 -3 c429 -2 453 -1 448 15 -3 10
-94 236 -202 503 -108 267 -284 701 -390 965 -107 264 -273 676 -370 915 -97
239 -201 498 -232 575 -31 77 -59 144 -63 148 -4 5 -41 -76 -83 -180z"/>
</g>
</svg>
